<svg xmlns="http://www.w3.org/2000/svg" viewBox="0 0 146 84" role="img" aria-labelledby="ti">
  <title>Cashaw Management Inc.</title>
  <path fill="#c8992f" fill-rule="evenodd" d="M34.83,82.98C32.92,82.82 31.38,82.57 29.50,82.14C27.55,81.69 24.57,80.74 24.13,80.42C23.92,80.28 23.64,80.17 23.49,80.17C23.06,80.17 19.10,78.08 17.82,77.17C17.49,76.94 16.85,76.49 16.40,76.18C15.01,75.21 12.81,73.25 11.56,71.89C10.24,70.45 8.35,68.02 7.58,66.79C7.31,66.35 6.92,65.75 6.72,65.45C6.39,64.97 5.32,62.87 4.48,61.08C3.92,59.87 3.31,58.26 2.99,57.17C2.82,56.57 2.57,55.82 2.44,55.49C2.30,55.16 2.07,54.26 1.93,53.49C1.78,52.72 1.55,51.60 1.42,51.00C1.29,50.40 1.09,48.32 0.99,46.36C0.75,42.01 0.99,36.65 1.53,34.17C2.39,30.16 3.22,27.51 4.42,24.92C5.12,23.38 6.37,20.94 6.66,20.51C6.83,20.28 7.25,19.63 7.61,19.08C8.75,17.31 10.15,15.55 11.83,13.78C12.79,12.76 15.38,10.52 16.25,9.95C16.62,9.71 17.37,9.20 17.91,8.83C18.46,8.45 19.18,8.00 19.50,7.84C19.82,7.68 20.68,7.24 21.42,6.86C23.20,5.96 24.64,5.38 26.25,4.91C26.98,4.70 27.81,4.45 28.08,4.35C28.36,4.25 29.78,3.94 31.25,3.67C34.83,3.00 39.00,2.74 42.67,2.97C45.69,3.16 49.96,3.90 51.94,4.59C52.60,4.81 53.28,5.00 53.44,5.00C53.61,5.00 54.12,5.19 54.58,5.41C55.04,5.64 55.49,5.83 55.58,5.83C55.74,5.83 58.39,7.06 58.83,7.34C59.21,7.57 60.94,8.53 61.77,8.95C62.97,9.57 63.00,9.70 63.00,14.88C63.00,19.31 62.95,19.83 62.48,19.83C62.41,19.83 62.00,19.18 61.57,18.37C60.51,16.43 59.55,14.98 57.90,12.81C56.53,11.01 53.31,8.16 51.53,7.17C51.28,7.03 50.82,6.77 50.50,6.59C48.68,5.53 44.71,4.54 41.65,4.39C37.78,4.19 33.30,5.42 30.59,7.42C30.22,7.69 29.73,8.04 29.50,8.20C28.44,8.90 25.53,12.04 24.79,13.27C24.63,13.53 24.24,14.16 23.92,14.67C23.40,15.49 22.48,17.29 21.41,19.58C21.20,20.04 20.97,20.68 20.91,21.00C20.85,21.32 20.66,21.85 20.50,22.17C20.34,22.49 20.09,23.33 19.94,24.03C19.80,24.74 19.57,25.58 19.43,25.90C19.30,26.22 19.14,26.85 19.08,27.29C19.02,27.72 18.79,29.04 18.57,30.21C17.38,36.49 17.39,49.11 18.59,55.83C19.07,58.49 19.23,59.21 19.97,61.92C20.73,64.71 21.27,66.15 22.64,69.00C23.42,70.62 24.55,72.46 25.81,74.16C26.46,75.05 28.96,77.54 29.91,78.25C31.70,79.60 34.08,80.73 36.33,81.30C37.87,81.68 38.42,81.74 40.83,81.74C43.31,81.75 43.78,81.70 45.58,81.27C46.67,81.00 47.97,80.61 48.46,80.39C48.94,80.18 49.43,80.00 49.53,80.00C49.71,80.00 50.26,79.68 52.33,78.36C54.56,76.94 57.54,73.97 59.21,71.50C59.36,71.27 59.79,70.64 60.16,70.10C60.53,69.57 61.18,68.50 61.60,67.73C62.02,66.96 62.41,66.33 62.48,66.33C62.94,66.33 63.00,66.86 63.00,71.27C63.00,73.77 62.93,76.00 62.84,76.23C62.75,76.46 62.40,76.81 62.05,77.00C61.70,77.20 60.93,77.64 60.33,78.00C55.87,80.64 50.28,82.44 44.86,82.99C42.88,83.19 37.17,83.19 34.83,82.98ZM69.17,50.92C69.17,50.79 73.84,46.05 79.54,40.38C85.25,34.72 96.46,23.56 104.46,15.58C116.81,3.27 119.08,1.08 119.53,1.03C120.02,0.98 120.74,1.67 131.77,12.76C139.94,20.97 143.57,24.51 143.75,24.44C144.05,24.33 144.05,24.31 144.07,21.78C144.09,19.54 144.20,19.33 145.37,19.33L146.00,19.33L146.00,25.84L146.00,32.36L145.62,32.24C145.42,32.18 144.94,31.85 144.55,31.52C144.17,31.19 143.28,30.47 142.58,29.92C141.88,29.37 140.80,28.50 140.17,28.00C139.55,27.50 138.65,26.78 138.17,26.42C137.39,25.82 135.02,23.94 131.28,20.96C130.56,20.39 129.66,19.67 129.28,19.36C128.90,19.06 128.47,18.72 128.33,18.61C128.20,18.50 127.11,17.64 125.92,16.70C122.74,14.19 121.22,12.98 120.47,12.38C120.10,12.08 119.67,11.83 119.51,11.83C119.22,11.83 118.81,12.13 116.50,14.00C115.88,14.50 114.98,15.22 114.50,15.58C114.02,15.95 112.93,16.81 112.08,17.50C111.23,18.19 110.14,19.05 109.66,19.42C109.19,19.78 108.29,20.50 107.67,21.00C107.05,21.50 105.59,22.67 104.42,23.58C102.05,25.45 100.80,26.43 98.89,27.96C98.17,28.53 96.72,29.69 95.67,30.53C94.61,31.37 93.51,32.25 93.22,32.49C92.93,32.72 92.34,33.18 91.91,33.50C91.48,33.82 90.62,34.50 90.00,35.00C88.75,36.00 87.43,37.05 84.47,39.38C77.73,44.68 75.78,46.23 74.35,47.42C72.19,49.22 70.06,50.82 69.57,51.00C69.26,51.12 69.17,51.10 69.17,50.92Z"/>
</svg>
