<svg xmlns="http://www.w3.org/2000/svg" viewBox="0 0 511 130" role="img" aria-labelledby="t">
  <title>Cashaw Management Inc. (navy)</title>
  <path fill="#0b162c" fill-rule="evenodd" d="M171.39,127.08C169.56,126.59 167.78,125.09 166.54,123.00C165.72,121.63 165.42,118.32 165.92,116.21C166.59,113.34 168.98,111.01 172.05,110.22C174.39,109.62 177.53,110.38 179.49,112.01C181.44,113.63 181.85,114.87 180.43,114.87C179.90,114.87 179.66,114.72 178.78,113.87C178.21,113.33 177.41,112.70 177.00,112.48C176.32,112.12 176.05,112.08 174.08,112.08C171.94,112.08 171.91,112.09 170.98,112.63C169.83,113.30 168.59,114.59 168.17,115.55C167.66,116.71 167.43,118.63 167.65,119.86C167.94,121.52 168.12,122.03 168.74,122.89C169.54,124.02 170.80,124.91 172.08,125.26C173.46,125.63 175.43,125.53 176.54,125.04C178.16,124.32 179.48,122.88 179.87,121.39C180.21,120.13 180.14,120.10 176.99,120.00L174.26,119.92L174.02,119.48C173.80,119.08 173.80,118.99 174.06,118.60L174.34,118.17L177.81,118.17C180.32,118.17 181.35,118.22 181.55,118.38C181.79,118.56 181.82,119.08 181.85,122.65C181.87,126.41 181.85,126.74 181.57,126.95C181.22,127.20 180.69,127.23 180.34,127.01C180.20,126.92 180.06,126.48 180.01,125.97C179.93,125.23 179.86,125.08 179.57,125.03C179.34,125.00 179.12,125.13 178.95,125.38C178.56,125.99 177.09,126.86 176.03,127.11C174.82,127.39 172.50,127.38 171.39,127.08ZM440.83,127.22C437.98,126.74 435.47,124.18 434.77,121.05C434.18,118.43 434.62,115.65 435.93,113.67C436.88,112.22 437.99,111.28 439.54,110.61C440.67,110.12 440.88,110.09 442.67,110.09C444.40,110.09 444.70,110.14 445.80,110.59C447.18,111.14 448.32,112.02 449.32,113.29C450.25,114.48 450.20,115.33 449.19,115.33C448.90,115.33 448.46,115.00 447.68,114.18C447.08,113.55 446.28,112.84 445.92,112.61C445.09,112.08 443.46,111.85 441.84,112.02C438.54,112.37 436.38,115.14 436.46,118.92C436.53,122.12 438.15,124.46 440.82,125.20C442.93,125.78 445.20,125.46 446.60,124.39C446.94,124.14 447.50,123.53 447.86,123.05C448.55,122.12 449.08,121.85 449.65,122.16C450.14,122.42 450.10,123.18 449.55,123.86C447.99,125.81 446.49,126.84 444.76,127.15C443.81,127.33 441.69,127.36 440.83,127.22ZM33.61,126.96C33.34,126.76 33.32,126.14 33.31,118.78C33.30,109.72 33.23,110.17 34.62,110.17C35.20,110.17 35.44,110.26 35.78,110.62C36.17,111.04 38.11,113.54 38.92,114.67C40.74,117.22 41.26,117.83 41.62,117.83C41.91,117.83 42.33,117.37 43.44,115.88C47.61,110.23 47.66,110.17 48.68,110.17C49.39,110.17 49.83,110.51 49.84,111.05C49.84,111.25 49.85,114.85 49.85,119.05C49.85,124.69 49.80,126.75 49.66,126.93C49.40,127.24 48.43,127.23 48.16,126.91C48.00,126.72 47.96,125.27 47.99,120.62C48.01,117.30 47.97,114.45 47.91,114.29C47.66,113.64 47.19,114.04 45.48,116.29C42.51,120.23 41.99,120.83 41.58,120.83C41.36,120.83 41.09,120.66 40.92,120.41C40.34,119.52 36.13,114.24 35.89,114.11C35.76,114.03 35.54,114.01 35.40,114.07C35.20,114.15 35.16,115.07 35.18,120.44C35.21,126.33 35.19,126.74 34.90,126.95C34.52,127.22 33.98,127.23 33.61,126.96ZM67.37,126.97C67.06,126.66 67.13,126.24 67.58,125.57C67.81,125.23 68.00,124.83 68.00,124.68C68.00,124.53 68.22,123.96 68.49,123.41C68.77,122.86 68.99,122.35 68.99,122.27C69.00,122.18 69.18,121.73 69.40,121.27C69.62,120.80 69.95,120.04 70.13,119.58C70.32,119.12 70.74,118.11 71.08,117.33C72.29,114.53 72.69,113.57 72.96,112.83C73.26,111.98 74.11,110.48 74.39,110.29C74.50,110.23 74.89,110.17 75.27,110.17C76.18,110.17 76.74,110.63 77.08,111.67C77.23,112.12 77.42,112.54 77.50,112.58C77.58,112.63 77.77,113.06 77.93,113.54C78.09,114.02 78.39,114.76 78.61,115.19C78.82,115.62 79.00,116.02 79.00,116.09C79.00,116.15 79.27,116.82 79.59,117.56C79.92,118.31 80.34,119.29 80.54,119.75C81.05,120.97 81.87,122.87 82.65,124.63C83.03,125.48 83.33,126.31 83.33,126.47C83.33,126.90 83.00,127.17 82.49,127.17C81.62,127.17 81.31,126.71 80.14,123.75C79.53,122.22 79.72,122.27 75.34,122.28C71.00,122.29 71.15,122.24 70.54,123.63C68.95,127.21 68.99,127.17 68.04,127.17C67.78,127.17 67.48,127.08 67.37,126.97ZM101.20,126.97C101.05,126.82 101.00,124.76 101.00,118.74C101.00,111.18 101.02,110.70 101.30,110.44C101.69,110.09 102.64,110.09 103.13,110.43C103.45,110.65 104.51,112.02 107.50,116.08C107.84,116.54 108.86,117.93 109.78,119.17C110.69,120.40 111.61,121.68 111.83,122.00C112.70,123.29 113.64,124.04 113.68,123.46C113.69,123.34 113.70,120.43 113.72,116.98C113.75,110.17 113.75,110.17 114.68,110.17C115.66,110.17 115.66,110.16 115.67,118.59C115.67,122.80 115.67,126.37 115.67,126.51C115.67,126.66 115.48,126.87 115.24,126.97C114.77,127.19 113.69,127.23 113.39,127.04C113.20,126.92 112.04,125.39 109.54,121.96C108.79,120.93 107.55,119.23 106.79,118.20C106.04,117.16 105.04,115.77 104.57,115.11C103.73,113.93 103.25,113.59 102.99,114.02C102.91,114.14 102.86,117.04 102.86,120.45C102.87,125.19 102.83,126.73 102.67,126.92C102.42,127.22 101.48,127.25 101.20,126.97ZM133.20,126.97C132.90,126.67 132.96,126.10 133.34,125.61C133.53,125.38 133.82,124.78 133.99,124.30C134.15,123.81 134.44,123.08 134.63,122.67C134.96,121.92 135.56,120.51 136.39,118.58C136.62,118.03 137.01,117.13 137.26,116.58C137.50,116.03 137.84,115.17 138.02,114.68C138.19,114.18 138.44,113.61 138.56,113.43C138.68,113.24 138.91,112.71 139.06,112.24C139.21,111.78 139.57,111.13 139.85,110.79C140.29,110.25 140.45,110.17 141.07,110.17C142.04,110.17 142.54,110.60 143.05,111.87C143.28,112.45 143.74,113.55 144.08,114.33C144.42,115.11 144.83,116.09 145.00,116.50C145.17,116.91 145.58,117.89 145.92,118.67C146.26,119.45 146.68,120.46 146.86,120.92C147.03,121.38 147.31,122.01 147.48,122.33C147.65,122.65 147.89,123.22 148.00,123.58C148.12,123.95 148.43,124.68 148.69,125.20C149.21,126.24 149.27,126.66 148.97,126.97C148.71,127.23 147.80,127.22 147.46,126.96C147.22,126.77 146.84,125.94 145.99,123.73C145.41,122.24 145.55,122.28 141.14,122.28L137.27,122.29L136.95,122.69C136.77,122.90 136.44,123.50 136.22,124.00C135.20,126.30 134.91,126.87 134.64,127.01C134.24,127.23 133.44,127.20 133.20,126.97ZM200.59,126.94C200.30,126.73 200.29,126.29 200.30,118.90C200.30,114.60 200.31,110.99 200.32,110.89C200.33,110.78 200.45,110.57 200.60,110.43C200.82,110.20 201.59,110.17 206.47,110.17C211.35,110.17 212.14,110.20 212.47,110.43C212.76,110.63 212.84,110.83 212.80,111.22C212.71,112.11 212.43,112.16 207.29,112.14C203.82,112.13 202.61,112.18 202.42,112.33C202.22,112.50 202.17,113.01 202.17,114.93C202.17,116.87 202.21,117.36 202.43,117.57C202.65,117.80 203.30,117.83 206.91,117.83C210.75,117.83 211.16,117.86 211.51,118.14C211.79,118.37 211.86,118.55 211.78,118.86C211.60,119.59 211.12,119.67 206.75,119.67C203.28,119.67 202.65,119.70 202.43,119.93C202.22,120.14 202.17,120.62 202.17,122.44C202.17,123.68 202.24,124.83 202.34,125.01C202.50,125.32 202.74,125.33 207.30,125.33C211.37,125.33 212.15,125.37 212.46,125.59C212.87,125.88 212.96,126.64 212.63,126.97C212.33,127.27 201.01,127.25 200.59,126.94ZM231.10,126.90C230.86,126.67 230.83,125.72 230.84,118.86C230.84,110.40 230.85,110.30 231.73,110.20C232.59,110.10 232.97,110.32 233.95,111.47C234.78,112.45 237.08,115.48 237.82,116.57C238.60,117.71 239.27,118.10 239.66,117.62C239.83,117.42 241.48,115.18 243.31,112.67C243.81,111.98 244.49,111.14 244.81,110.79C245.29,110.28 245.52,110.17 246.03,110.17C246.44,110.17 246.78,110.28 247.00,110.50C247.32,110.82 247.33,111.06 247.33,118.74C247.33,125.70 247.30,126.67 247.07,126.90C246.75,127.23 246.17,127.24 245.76,126.94C245.47,126.73 245.46,126.35 245.49,120.56C245.51,115.56 245.48,114.36 245.30,114.20C244.93,113.90 244.38,114.31 243.53,115.53C242.87,116.47 240.26,119.91 239.65,120.63C239.33,121.02 238.78,120.77 238.17,119.98C237.85,119.55 236.96,118.45 236.20,117.52C235.44,116.59 234.56,115.41 234.23,114.90C233.77,114.18 233.56,113.99 233.28,114.03L232.92,114.08L232.83,120.46C232.74,127.40 232.78,127.16 231.80,127.16C231.56,127.17 231.24,127.05 231.10,126.90ZM266.87,126.91L266.50,126.65L266.50,119.00C266.50,111.47 266.55,110.61 267.05,110.30C267.16,110.23 269.78,110.17 272.86,110.17C279.03,110.17 279.00,110.16 279.00,111.17C279.00,112.12 278.74,112.17 273.59,112.14C267.86,112.11 268.34,111.84 268.39,115.11C268.42,117.12 268.46,117.39 268.74,117.60C269.00,117.79 269.92,117.83 273.27,117.83C276.87,117.83 277.51,117.87 277.74,118.10C278.09,118.45 278.07,118.93 277.67,119.33C277.35,119.65 277.11,119.67 273.20,119.67C269.89,119.67 269.00,119.71 268.74,119.90C268.45,120.12 268.42,120.36 268.42,122.50C268.42,124.64 268.45,124.88 268.74,125.10C269.00,125.29 269.97,125.33 273.76,125.33C278.09,125.33 278.47,125.36 278.72,125.64C279.05,125.99 279.09,126.68 278.80,126.97C278.65,127.11 277.12,127.17 272.92,127.17C268.05,127.17 267.19,127.13 266.87,126.91ZM297.28,126.87C297.05,126.61 297.02,125.70 297.01,118.89C297.00,114.21 297.06,111.04 297.16,110.77C297.36,110.25 297.98,110.06 298.81,110.27C299.31,110.39 299.62,110.71 300.74,112.20C301.48,113.18 302.27,114.25 302.50,114.59C302.73,114.92 303.14,115.48 303.42,115.83C303.87,116.41 305.32,118.38 308.17,122.30C309.79,124.53 309.74,124.72 309.83,117.15C309.92,110.09 309.92,110.10 310.90,110.20C311.82,110.29 311.83,110.34 311.83,118.87L311.83,126.65L311.46,126.91C311.26,127.05 310.76,127.17 310.36,127.17C309.73,127.17 309.55,127.08 309.05,126.54C308.73,126.20 308.27,125.62 308.04,125.25C307.81,124.88 306.89,123.61 306.01,122.42C303.70,119.31 302.04,117.03 301.08,115.67C299.68,113.67 299.58,113.56 299.27,113.82C299.03,114.02 299.00,114.75 299.00,120.43C299.00,126.58 298.99,126.83 298.68,126.99C298.19,127.25 297.58,127.20 297.28,126.87ZM335.26,126.90C335.03,126.67 335.00,125.78 335.00,119.59C335.00,113.40 334.97,112.51 334.74,112.32C334.55,112.17 333.77,112.10 331.98,112.10C329.70,112.08 329.45,112.05 329.24,111.76C328.91,111.31 328.94,110.89 329.33,110.50C329.65,110.18 329.89,110.17 336.00,110.17C342.11,110.17 342.35,110.18 342.67,110.50C343.06,110.89 343.09,111.31 342.76,111.76C342.55,112.05 342.30,112.09 340.01,112.10C338.28,112.12 337.42,112.19 337.25,112.33C337.03,112.51 337.00,113.51 337.00,119.59C337.00,127.34 337.02,127.17 336.00,127.17C335.74,127.17 335.41,127.05 335.26,126.90ZM380.94,126.86C380.69,126.59 380.67,125.79 380.67,118.82C380.67,112.94 380.72,110.98 380.88,110.67C381.17,110.08 382.03,110.00 382.40,110.53C382.64,110.86 382.67,111.84 382.67,118.78C382.67,125.71 382.64,126.67 382.40,126.90C382.05,127.26 381.28,127.24 380.94,126.86ZM402.10,126.90C401.86,126.67 401.83,125.71 401.83,118.78C401.83,109.87 401.79,110.17 403.03,110.17C403.62,110.17 403.81,110.27 404.40,110.89C404.77,111.29 405.29,111.91 405.55,112.27C405.81,112.62 406.26,113.25 406.57,113.67C406.87,114.08 407.53,114.98 408.03,115.67C408.53,116.35 409.58,117.78 410.36,118.83C411.14,119.89 412.11,121.24 412.50,121.83C412.90,122.43 413.38,123.05 413.57,123.20C413.98,123.54 414.50,123.59 414.51,123.29C414.51,123.18 414.51,120.35 414.50,117.00C414.49,111.71 414.53,110.87 414.75,110.54C415.11,110.04 415.89,110.04 416.24,110.54C416.47,110.86 416.50,111.92 416.50,118.78L416.50,126.65L416.13,126.91C415.93,127.05 415.47,127.17 415.11,127.17C414.56,127.17 414.35,127.06 413.77,126.45C413.39,126.06 412.60,125.05 412.00,124.20C411.40,123.36 410.43,122.01 409.83,121.20C407.08,117.48 406.03,116.04 405.42,115.11C405.05,114.56 404.62,114.03 404.46,113.93C403.81,113.53 403.78,113.87 403.81,120.36C403.83,125.92 403.81,126.59 403.56,126.86C403.22,127.24 402.45,127.26 402.10,126.90ZM468.12,126.98C467.62,126.69 467.47,126.06 467.74,125.41C468.18,124.36 469.42,124.21 469.91,125.16C470.46,126.23 470.05,127.17 469.03,127.16C468.69,127.16 468.28,127.08 468.12,126.98ZM143.94,120.43C144.28,120.30 144.21,119.33 143.82,118.58C143.39,117.75 142.57,115.75 142.09,114.36C141.89,113.77 141.59,113.22 141.43,113.13C141.03,112.91 140.61,113.32 140.25,114.30C139.88,115.30 138.94,117.50 138.41,118.60C137.91,119.64 137.88,120.30 138.32,120.46C138.68,120.60 143.58,120.57 143.94,120.43ZM78.30,119.89C78.33,119.57 78.15,118.93 77.83,118.23C77.54,117.60 77.16,116.68 76.98,116.18C76.81,115.69 76.60,115.20 76.52,115.10C76.44,115.00 76.25,114.52 76.09,114.03C75.93,113.54 75.69,113.10 75.55,113.05C75.17,112.90 74.73,113.47 74.19,114.83C73.18,117.37 72.81,118.26 72.49,118.86C72.17,119.47 72.07,120.18 72.28,120.39C72.34,120.46 73.71,120.49 75.32,120.46L78.25,120.42L78.30,119.89ZM38.42,85.15C35.92,84.99 34.26,84.75 31.92,84.23C29.67,83.72 26.63,82.77 26.13,82.42C25.92,82.28 25.64,82.17 25.49,82.17C25.06,82.17 21.10,80.08 19.82,79.17C19.49,78.94 18.85,78.49 18.40,78.18C17.01,77.21 14.81,75.25 13.56,73.89C12.24,72.45 10.35,70.02 9.58,68.79C9.31,68.35 8.92,67.75 8.72,67.45C8.39,66.97 7.32,64.87 6.48,63.08C5.96,61.95 5.31,60.29 5.07,59.45C4.95,59.01 4.66,58.10 4.42,57.42C4.19,56.75 4.00,56.01 4.00,55.78C4.00,55.56 3.82,54.67 3.60,53.81C3.08,51.75 2.83,48.93 2.83,44.92C2.83,41.06 3.07,38.04 3.49,36.42C3.66,35.77 3.85,34.91 3.91,34.50C4.03,33.62 4.87,30.78 5.36,29.58C5.55,29.12 5.80,28.43 5.93,28.03C6.05,27.64 6.30,27.04 6.48,26.70C6.66,26.36 7.16,25.38 7.59,24.51C8.02,23.65 8.50,22.75 8.66,22.51C8.83,22.28 9.25,21.63 9.61,21.08C10.75,19.31 12.15,17.55 13.83,15.78C14.79,14.76 17.38,12.52 18.25,11.95C18.62,11.71 19.37,11.20 19.91,10.83C20.46,10.45 21.18,10.00 21.50,9.84C21.82,9.68 22.68,9.24 23.42,8.86C25.20,7.96 26.64,7.38 28.25,6.91C28.98,6.70 29.81,6.45 30.08,6.35C30.36,6.25 31.78,5.94 33.25,5.67C36.83,5.00 41.00,4.74 44.67,4.97C47.69,5.16 51.96,5.90 53.94,6.59C54.60,6.81 55.28,7.00 55.44,7.00C55.61,7.00 56.12,7.19 56.58,7.41C57.04,7.64 57.49,7.83 57.58,7.83C57.74,7.83 60.39,9.06 60.83,9.34C61.21,9.57 62.94,10.53 63.77,10.95C64.97,11.57 65.00,11.70 65.00,16.88C65.00,21.31 64.95,21.83 64.48,21.83C64.41,21.83 64.00,21.18 63.57,20.38C62.51,18.43 61.55,16.98 59.90,14.81C58.53,13.01 55.31,10.16 53.53,9.17C53.28,9.03 52.82,8.77 52.50,8.59C50.68,7.53 46.71,6.54 43.65,6.39C39.78,6.19 35.30,7.42 32.59,9.42C32.22,9.69 31.73,10.04 31.50,10.20C30.44,10.90 27.53,14.04 26.79,15.27C26.63,15.53 26.24,16.16 25.92,16.67C25.40,17.49 24.48,19.29 23.41,21.58C23.20,22.04 22.97,22.68 22.91,23.00C22.85,23.32 22.66,23.85 22.50,24.17C22.34,24.49 22.09,25.33 21.94,26.03C21.80,26.74 21.57,27.58 21.43,27.90C21.30,28.22 21.14,28.85 21.08,29.29C21.02,29.72 20.79,31.04 20.57,32.21C19.38,38.49 19.39,51.11 20.59,57.83C21.07,60.49 21.23,61.21 21.97,63.92C22.73,66.71 23.27,68.15 24.64,71.00C25.42,72.62 26.55,74.46 27.81,76.16C28.46,77.05 30.96,79.54 31.91,80.25C33.70,81.60 36.08,82.73 38.33,83.30C39.87,83.68 40.42,83.74 42.83,83.74C45.31,83.75 45.78,83.70 47.58,83.27C48.67,83.00 49.97,82.61 50.46,82.39C50.94,82.18 51.43,82.00 51.53,82.00C51.71,82.00 52.26,81.68 54.33,80.36C56.56,78.94 59.54,75.97 61.21,73.50C61.36,73.27 61.79,72.64 62.16,72.10C62.53,71.57 63.18,70.50 63.60,69.73C64.02,68.96 64.41,68.33 64.48,68.33C64.94,68.33 65.00,68.86 65.00,73.27C65.00,75.77 64.93,78.00 64.84,78.23C64.75,78.46 64.40,78.81 64.05,79.00C63.70,79.20 62.93,79.64 62.33,80.00C57.27,83.00 51.15,84.80 44.81,85.16C41.49,85.35 41.37,85.35 38.42,85.15ZM203.75,85.23C199.49,84.97 197.39,84.77 195.08,84.40C192.11,83.93 188.48,83.15 186.83,82.63C186.24,82.45 185.26,82.16 184.67,81.99C184.07,81.83 183.10,81.50 182.50,81.25C180.82,80.57 179.11,79.83 178.83,79.66C178.70,79.57 178.24,79.32 177.81,79.09C177.39,78.87 177.00,78.57 176.95,78.43C176.81,78.08 176.77,68.73 176.91,68.51C176.97,68.41 177.12,68.33 177.25,68.33C177.49,68.33 177.67,68.55 178.52,69.87C179.68,71.68 183.71,75.35 186.56,77.20C187.65,77.90 191.47,80.00 191.67,80.00C191.76,80.00 192.20,80.18 192.63,80.40C193.88,81.02 195.84,81.77 196.83,81.99C197.34,82.10 198.12,82.33 198.58,82.50C199.37,82.79 202.16,83.31 205.00,83.69C205.69,83.79 207.49,83.83 209.00,83.79C211.36,83.72 212.04,83.64 213.83,83.19C214.98,82.91 216.39,82.48 216.97,82.24C219.72,81.12 222.16,78.87 223.30,76.43C223.96,75.01 224.24,73.16 224.08,71.26C223.95,69.81 223.88,69.54 223.27,68.09C222.67,66.66 222.24,65.99 220.79,64.26C219.18,62.32 215.86,59.50 213.18,57.78C212.87,57.58 212.31,57.22 211.93,56.97C211.56,56.72 210.85,56.27 210.35,55.97C209.86,55.67 209.07,55.18 208.60,54.88C208.13,54.59 207.56,54.25 207.33,54.14C207.10,54.03 206.73,53.80 206.50,53.65C206.08,53.37 205.12,52.82 203.67,52.04C203.25,51.82 202.45,51.37 201.88,51.03C201.31,50.69 200.19,50.05 199.38,49.60C198.58,49.14 197.73,48.65 197.50,48.49C197.27,48.33 196.46,47.84 195.71,47.40C194.08,46.44 192.87,45.70 192.27,45.29C191.83,45.00 191.49,44.77 190.33,44.00C186.69,41.57 182.59,38.01 180.94,35.85C179.93,34.52 179.00,33.19 179.00,33.07C179.00,33.01 178.83,32.69 178.62,32.36C178.08,31.49 177.34,29.44 177.07,28.08C176.78,26.60 176.79,23.14 177.08,21.42C177.43,19.35 178.48,16.76 179.70,14.97C181.18,12.79 184.24,10.10 186.58,8.91C186.95,8.72 187.40,8.49 187.58,8.38C189.22,7.43 193.14,6.19 196.75,5.48C199.31,4.97 199.58,4.95 203.58,4.95C205.88,4.94 208.50,5.03 209.42,5.14C211.50,5.38 214.91,5.95 216.33,6.29C218.95,6.91 219.47,7.04 220.42,7.35C220.97,7.53 221.87,7.82 222.42,7.99C223.89,8.45 227.04,9.78 228.00,10.35C228.14,10.43 228.60,10.68 229.03,10.91C230.37,11.63 230.33,11.45 230.33,16.87L230.33,21.67L229.94,21.67C229.56,21.67 229.00,21.21 229.00,20.90C229.00,20.60 227.77,18.91 226.44,17.36C225.10,15.81 222.59,13.53 221.17,12.56C219.12,11.17 217.89,10.40 217.17,10.07C215.41,9.27 214.37,8.78 214.00,8.58C213.77,8.46 213.13,8.24 212.58,8.09C212.03,7.94 211.21,7.67 210.75,7.50C209.16,6.92 205.47,6.43 202.67,6.43C200.51,6.43 199.73,6.50 197.96,6.88C196.80,7.12 195.62,7.44 195.35,7.58C195.07,7.72 194.78,7.83 194.70,7.83C194.47,7.83 193.52,8.28 192.65,8.79C190.10,10.30 188.39,12.35 187.80,14.61C187.37,16.26 187.37,17.36 187.82,19.24C188.38,21.60 189.57,23.45 192.19,26.04C193.09,26.93 194.11,27.85 194.45,28.08C194.80,28.32 195.38,28.73 195.75,29.01C197.24,30.12 200.27,32.13 201.67,32.92C202.08,33.16 202.87,33.62 203.42,33.95C204.77,34.76 207.75,36.47 208.67,36.96C209.08,37.18 209.90,37.65 210.50,38.01C211.10,38.36 211.84,38.78 212.15,38.92C212.46,39.07 212.91,39.32 213.15,39.49C213.39,39.65 214.15,40.11 214.83,40.50C216.53,41.47 217.72,42.22 220.31,43.94C225.84,47.59 229.61,51.06 232.26,54.92C232.79,55.70 233.93,57.97 234.40,59.21C235.67,62.53 235.64,68.21 234.32,71.57C233.14,74.58 231.61,76.69 229.14,78.73C228.34,79.38 227.44,80.08 227.14,80.28C226.63,80.61 224.34,81.77 222.75,82.50C220.91,83.34 215.56,84.67 212.67,85.00C211.11,85.18 205.33,85.33 203.75,85.23ZM257.33,83.83C253.64,83.61 250.81,82.53 249.15,80.69C248.31,79.76 247.43,78.13 247.15,77.00C247.07,76.68 247.01,60.74 247.00,41.58L246.99,6.75L247.37,6.44C247.71,6.16 247.96,6.14 250.25,6.25C253.56,6.41 256.38,6.95 257.92,7.72C259.36,8.45 260.71,9.82 261.46,11.33C261.86,12.14 262.04,12.79 262.16,13.92C262.26,14.79 262.33,20.90 262.33,28.60L262.33,41.78L262.68,42.10C263.02,42.41 263.51,42.41 280.06,42.36C289.42,42.33 297.41,42.24 297.81,42.17C298.21,42.10 298.61,41.93 298.69,41.81C298.76,41.69 298.83,33.73 298.83,24.13L298.83,6.67L299.24,6.41C299.59,6.18 300.05,6.15 302.28,6.23C308.43,6.43 311.56,7.86 313.22,11.22C313.60,11.99 313.89,12.88 313.99,13.60C314.10,14.33 314.16,27.19 314.16,49.12L314.17,83.48L313.79,83.74C313.48,83.96 313.03,83.99 311.00,83.91C309.67,83.87 308.26,83.78 307.87,83.74C306.35,83.54 303.94,82.81 302.91,82.24C300.94,81.14 299.35,78.92 299.01,76.81C298.90,76.14 298.84,70.03 298.83,60.05L298.83,44.34L298.42,44.07C298.05,43.83 296.47,43.81 280.46,43.92C270.52,43.99 262.79,44.11 262.62,44.19C262.35,44.34 262.33,45.45 262.33,63.90C262.33,81.63 262.31,83.48 262.07,83.68C261.76,83.94 260.15,83.99 257.33,83.83ZM323.29,83.82C322.91,83.60 322.92,83.11 323.33,82.36C323.51,82.02 323.82,81.34 324.01,80.83C324.73,78.97 326.01,75.83 326.59,74.48C326.82,73.96 327.00,73.44 327.00,73.31C327.00,73.19 327.14,72.86 327.31,72.58C327.47,72.31 327.73,71.75 327.88,71.33C328.18,70.47 328.84,68.84 329.40,67.50C330.07,65.92 330.53,64.79 330.92,63.70C331.13,63.12 331.38,62.56 331.46,62.45C331.55,62.34 331.76,61.84 331.92,61.33C332.08,60.83 332.31,60.27 332.42,60.08C332.54,59.90 332.76,59.34 332.92,58.83C333.09,58.33 333.32,57.76 333.44,57.57C333.56,57.39 333.81,56.82 333.98,56.32C334.48,54.90 336.08,50.94 336.40,50.33C336.52,50.10 336.72,49.62 336.83,49.25C336.94,48.88 337.17,48.28 337.34,47.92C337.78,46.98 338.48,45.24 338.83,44.23C339.00,43.76 339.26,43.13 339.42,42.83C339.57,42.53 339.83,41.90 340.00,41.44C340.38,40.35 341.13,38.51 341.34,38.12C341.44,37.96 341.69,37.34 341.92,36.74C342.15,36.15 342.52,35.17 342.75,34.57C342.99,33.96 343.26,33.30 343.37,33.11C343.47,32.91 343.73,32.30 343.93,31.75C344.41,30.46 345.11,28.72 345.42,28.08C345.55,27.81 345.81,27.17 346.01,26.67C346.79,24.67 347.29,23.39 347.54,22.83C347.88,22.04 348.46,20.62 348.92,19.42C349.60,17.62 350.18,16.26 350.59,15.48C351.10,14.51 351.11,13.92 350.61,12.98C350.40,12.58 350.12,11.95 350.00,11.60C349.89,11.24 349.66,10.71 349.50,10.43C349.34,10.15 349.11,9.62 349.00,9.25C348.88,8.88 348.65,8.38 348.48,8.14C348.01,7.47 347.92,6.78 348.25,6.44C348.51,6.18 348.94,6.16 352.81,6.23C356.51,6.29 357.36,6.36 359.17,6.72C360.80,7.05 361.53,7.29 362.53,7.82C364.53,8.90 366.14,10.67 367.43,13.18C368.24,14.75 368.49,15.30 370.50,20.00C370.78,20.64 371.22,21.69 371.50,22.33C371.78,22.97 372.22,24.03 372.50,24.67C372.78,25.31 373.22,26.34 373.48,26.96C373.74,27.58 374.19,28.63 374.48,29.29C374.77,29.96 375.23,31.04 375.52,31.71C375.80,32.37 376.25,33.39 376.52,33.96C376.78,34.54 377.00,35.10 377.00,35.21C377.00,35.32 377.22,35.83 377.49,36.33C377.76,36.84 377.99,37.36 377.99,37.48C378.00,37.61 378.18,38.10 378.41,38.57C378.63,39.03 379.09,40.05 379.42,40.83C379.75,41.61 380.23,42.74 380.49,43.33C381.47,45.55 381.97,46.76 382.08,47.13C382.14,47.34 382.37,47.83 382.59,48.21C382.82,48.60 383.00,49.03 383.00,49.17C383.00,49.30 383.22,49.83 383.49,50.33C383.76,50.84 383.99,51.35 383.99,51.47C384.00,51.59 384.23,52.19 384.51,52.80C384.79,53.42 385.25,54.44 385.53,55.08C385.81,55.73 386.25,56.72 386.52,57.29C386.78,57.87 387.00,58.43 387.00,58.54C387.00,58.66 387.22,59.16 387.49,59.67C387.76,60.17 387.99,60.70 387.99,60.84C388.00,60.97 388.16,61.39 388.35,61.75C388.55,62.11 388.81,62.71 388.94,63.08C389.07,63.45 389.35,64.12 389.57,64.58C389.79,65.04 390.16,65.87 390.39,66.42C390.62,66.97 391.07,68.01 391.40,68.73C391.73,69.45 392.00,70.12 392.00,70.23C392.00,70.33 392.22,70.83 392.49,71.33C392.76,71.84 392.99,72.36 392.99,72.50C393.00,72.64 393.18,73.09 393.39,73.50C393.61,73.91 393.88,74.54 394.00,74.90C394.12,75.26 394.34,75.79 394.50,76.07C394.66,76.35 394.89,76.87 395.00,77.22C395.11,77.57 395.38,78.17 395.60,78.56C395.82,78.94 396.00,79.35 396.00,79.47C396.00,79.68 396.60,81.05 397.36,82.62C397.55,83.01 397.67,83.43 397.62,83.55C397.49,83.88 396.34,84.00 393.44,83.99C387.90,83.97 384.78,83.49 382.83,82.36C381.87,81.79 379.52,79.45 378.96,78.49C378.22,77.21 377.00,74.79 377.00,74.58C377.00,74.47 376.82,74.05 376.61,73.65C376.40,73.25 376.12,72.62 376.01,72.25C375.89,71.88 375.69,71.41 375.55,71.19C375.41,70.98 375.16,70.38 374.98,69.87C374.81,69.35 374.56,68.78 374.44,68.59C374.32,68.40 374.12,67.95 374.00,67.58C373.88,67.22 373.61,66.58 373.39,66.17C373.18,65.76 373.00,65.32 373.00,65.20C373.00,65.09 372.78,64.54 372.50,64.00C372.22,63.46 372.00,62.91 372.00,62.78C372.00,62.65 371.82,62.22 371.61,61.82C371.40,61.41 371.12,60.78 371.00,60.42C370.77,59.71 370.12,58.43 369.81,58.06C369.66,57.87 366.69,57.83 352.43,57.83L335.22,57.83L334.86,58.22C334.66,58.43 334.34,59.09 334.14,59.68C333.94,60.27 333.69,60.90 333.58,61.08C333.46,61.27 333.24,61.83 333.08,62.33C332.92,62.84 332.72,63.33 332.64,63.43C332.56,63.54 332.35,64.06 332.16,64.60C331.98,65.14 331.72,65.81 331.59,66.08C331.32,66.62 330.70,68.14 330.09,69.75C329.61,70.99 329.10,72.26 328.48,73.68C328.21,74.28 328.00,74.87 328.00,74.98C328.00,75.09 327.84,75.49 327.65,75.87C327.46,76.25 327.16,76.94 327.00,77.40C326.64,78.43 325.91,80.23 325.58,80.92C325.45,81.19 325.19,81.85 324.99,82.37C324.80,82.90 324.45,83.48 324.22,83.66C323.73,84.05 323.69,84.05 323.29,83.82ZM441.92,83.83C440.92,83.76 439.66,83.54 438.78,83.27C435.60,82.33 433.65,80.51 431.62,76.58C430.99,75.35 430.62,74.57 429.50,72.00C429.12,71.13 428.63,70.04 428.42,69.58C428.20,69.12 427.94,68.47 427.84,68.13C427.73,67.78 427.58,67.47 427.50,67.42C427.42,67.37 427.20,66.84 427.00,66.25C426.80,65.66 426.58,65.13 426.50,65.08C426.42,65.03 426.27,64.72 426.16,64.37C426.05,64.03 425.74,63.26 425.46,62.67C424.23,60.02 424.02,59.55 423.84,58.96C423.73,58.62 423.58,58.30 423.50,58.25C423.42,58.20 423.20,57.68 423.00,57.08C422.80,56.49 422.58,55.96 422.50,55.92C422.42,55.87 422.27,55.55 422.16,55.21C422.05,54.86 421.75,54.11 421.48,53.54C421.22,52.97 420.78,52.03 420.52,51.46C420.25,50.89 419.95,50.14 419.84,49.79C419.73,49.45 419.58,49.13 419.50,49.08C419.42,49.04 419.23,48.61 419.08,48.15C418.92,47.68 418.62,46.99 418.40,46.61C418.18,46.23 418.00,45.81 418.00,45.68C418.00,45.56 417.78,44.99 417.52,44.43C416.98,43.30 416.32,41.80 415.42,39.67C415.09,38.89 414.64,37.88 414.42,37.42C414.21,36.96 413.83,36.10 413.57,35.50C413.32,34.90 412.90,33.96 412.64,33.40C412.38,32.84 412.06,32.08 411.94,31.73C411.81,31.37 411.55,30.78 411.35,30.42C411.16,30.05 411.00,29.68 411.00,29.59C411.00,29.50 410.82,29.05 410.59,28.59C410.37,28.13 409.92,27.11 409.59,26.33C408.62,24.06 408.00,22.64 407.57,21.75C407.35,21.29 407.06,20.59 406.92,20.18C406.78,19.78 406.59,19.36 406.50,19.25C406.41,19.14 406.22,18.72 406.08,18.32C405.94,17.91 405.65,17.21 405.43,16.75C405.21,16.29 404.79,15.35 404.50,14.67C404.20,13.98 403.74,12.97 403.48,12.42C403.22,11.87 403.00,11.34 403.00,11.25C403.00,11.16 402.82,10.71 402.60,10.25C401.68,8.35 401.17,7.11 401.17,6.82C401.17,6.17 401.68,6.11 406.49,6.21C410.61,6.30 411.28,6.35 412.98,6.74C414.93,7.18 416.19,7.75 417.35,8.74C418.18,9.44 419.71,11.27 420.15,12.08C420.35,12.45 420.62,12.94 420.75,13.17C420.89,13.40 421.26,14.18 421.60,14.92C421.93,15.65 422.38,16.62 422.59,17.08C422.80,17.54 423.06,18.20 423.16,18.54C423.27,18.88 423.42,19.20 423.50,19.25C423.58,19.30 423.73,19.62 423.84,19.96C423.94,20.30 424.20,20.96 424.42,21.42C424.79,22.23 425.51,23.87 426.54,26.25C426.81,26.89 427.25,27.87 427.52,28.43C427.78,28.99 428.00,29.56 428.00,29.68C428.00,29.81 428.18,30.23 428.40,30.61C428.62,30.99 428.92,31.68 429.08,32.15C429.23,32.61 429.42,33.04 429.50,33.08C429.58,33.13 429.73,33.45 429.84,33.79C429.94,34.14 430.20,34.79 430.42,35.25C430.80,36.09 431.63,37.97 432.50,40.00C433.72,42.87 434.06,43.65 434.43,44.42C434.65,44.88 434.94,45.58 435.08,45.99C435.22,46.39 435.41,46.81 435.50,46.92C435.59,47.03 435.81,47.52 435.98,48.02C436.15,48.51 436.45,49.18 436.64,49.50C436.84,49.82 437.00,50.18 437.00,50.30C437.00,50.42 437.21,50.99 437.47,51.55C437.73,52.12 438.14,53.03 438.38,53.58C439.54,56.26 440.23,57.82 440.58,58.58C440.80,59.04 441.06,59.70 441.16,60.04C441.27,60.38 441.42,60.70 441.50,60.75C441.58,60.80 441.80,61.32 442.00,61.92C442.20,62.51 442.42,63.04 442.50,63.08C442.58,63.13 442.80,63.66 443.00,64.25C443.20,64.84 443.42,65.37 443.50,65.42C443.58,65.47 443.73,65.78 443.84,66.13C443.95,66.47 444.25,67.20 444.50,67.75C445.06,68.95 446.05,71.21 446.33,71.95C446.58,72.61 447.08,73.07 447.40,72.95C447.54,72.89 447.73,72.53 447.82,72.13C447.92,71.74 448.08,71.19 448.19,70.92C448.59,69.84 449.53,67.21 449.77,66.50C449.91,66.09 450.14,65.49 450.28,65.17C450.43,64.85 450.72,64.06 450.93,63.42C451.36,62.10 452.27,59.57 453.87,55.17C454.19,54.30 454.70,52.88 455.01,52.03L455.57,50.47L455.27,49.61C455.11,49.14 454.77,48.30 454.51,47.75C454.07,46.81 453.75,46.07 452.50,43.17C451.56,40.97 451.03,39.75 450.53,38.67C450.26,38.07 449.95,37.30 449.84,36.96C449.73,36.62 449.58,36.30 449.50,36.25C449.42,36.20 449.27,35.88 449.16,35.54C449.05,35.20 448.75,34.47 448.50,33.92C448.06,32.96 447.56,31.83 446.46,29.25C446.19,28.61 445.75,27.63 445.50,27.08C445.25,26.53 444.95,25.80 444.84,25.46C444.73,25.12 444.58,24.80 444.50,24.75C444.42,24.70 444.27,24.38 444.16,24.04C444.05,23.70 443.74,22.93 443.47,22.33C442.96,21.22 442.38,19.89 441.48,17.79C441.20,17.13 440.79,16.21 440.57,15.75C440.35,15.29 440.06,14.59 439.92,14.18C439.78,13.78 439.59,13.36 439.50,13.25C439.41,13.14 439.18,12.61 439.00,12.08C438.82,11.55 438.59,11.03 438.50,10.92C438.41,10.81 438.18,10.28 438.00,9.74C437.81,9.21 437.56,8.66 437.43,8.51C437.12,8.17 436.80,6.94 436.93,6.60C436.99,6.45 437.20,6.29 437.40,6.24C437.60,6.19 439.74,6.18 442.17,6.22C446.14,6.29 446.77,6.34 448.43,6.72C449.64,7.00 450.66,7.35 451.37,7.75C452.48,8.35 453.90,9.60 454.70,10.67C455.37,11.56 456.79,13.93 456.92,14.36C456.98,14.58 457.21,15.07 457.42,15.45C457.63,15.84 457.93,16.53 458.08,16.99C458.23,17.45 458.42,17.87 458.50,17.92C458.58,17.97 458.73,18.28 458.84,18.63C458.95,18.97 459.25,19.72 459.52,20.29C459.78,20.86 460.22,21.80 460.48,22.38C460.75,22.95 461.05,23.70 461.16,24.04C461.27,24.38 461.42,24.70 461.50,24.75C461.58,24.80 461.77,25.23 461.93,25.71C462.28,26.78 462.93,28.10 463.18,28.26C463.46,28.43 463.93,27.84 464.14,27.08C464.24,26.72 464.54,25.82 464.81,25.08C465.99,21.87 466.54,20.35 466.86,19.34C467.05,18.75 467.30,18.11 467.42,17.93C467.55,17.74 467.74,17.21 467.85,16.75C467.96,16.29 468.18,15.65 468.34,15.33C468.50,15.00 468.76,14.29 468.92,13.74C469.08,13.20 469.27,12.67 469.34,12.58C469.41,12.49 469.66,11.85 469.89,11.17C470.99,7.93 471.32,7.12 471.67,6.74C472.64,5.72 473.30,6.77 472.52,8.09C472.42,8.27 472.19,8.87 472.01,9.42C471.83,9.97 471.45,11.05 471.16,11.83C470.87,12.61 470.42,13.85 470.16,14.58C469.89,15.32 469.41,16.67 469.08,17.58C468.75,18.50 468.36,19.59 468.22,20.00C468.08,20.41 467.80,21.16 467.58,21.67C467.37,22.17 467.15,22.85 467.08,23.17C467.01,23.49 466.84,23.97 466.70,24.25C466.56,24.52 466.28,25.27 466.07,25.92C465.62,27.32 464.91,29.22 464.58,29.94C464.27,30.61 464.27,31.24 464.57,31.81C464.91,32.43 466.00,34.93 466.00,35.09C466.00,35.16 466.22,35.67 466.48,36.23C466.75,36.79 467.21,37.81 467.50,38.50C467.80,39.19 468.25,40.24 468.51,40.83C468.77,41.43 469.25,42.55 469.59,43.33C469.92,44.11 470.37,45.12 470.58,45.58C470.79,46.04 471.06,46.70 471.16,47.04C471.27,47.38 471.42,47.70 471.50,47.75C471.58,47.80 471.80,48.32 472.00,48.92C472.20,49.51 472.42,50.04 472.50,50.08C472.58,50.13 472.73,50.45 472.84,50.79C472.95,51.14 473.25,51.87 473.50,52.42C473.75,52.97 474.19,53.94 474.46,54.58C475.49,56.96 476.21,58.61 476.58,59.42C476.80,59.88 477.06,60.53 477.16,60.87C477.27,61.22 477.42,61.53 477.50,61.58C477.58,61.63 477.80,62.16 478.00,62.75C478.20,63.34 478.42,63.87 478.50,63.92C478.58,63.97 478.73,64.28 478.84,64.63C478.94,64.97 479.20,65.62 479.42,66.08C479.80,66.91 480.51,68.52 481.46,70.75C481.74,71.39 482.01,72.13 482.07,72.38C482.33,73.54 483.28,72.88 483.74,71.22C483.89,70.68 484.15,69.91 484.33,69.50C484.62,68.83 485.01,67.76 485.78,65.50C485.92,65.09 486.20,64.34 486.42,63.83C486.63,63.33 486.85,62.65 486.92,62.33C486.99,62.01 487.17,61.49 487.34,61.17C487.50,60.84 487.72,60.24 487.83,59.83C487.94,59.42 488.20,58.67 488.41,58.17C488.63,57.66 488.92,56.91 489.05,56.50C489.33,55.69 490.26,53.09 490.91,51.33C491.13,50.74 491.47,49.76 491.67,49.17C491.87,48.57 492.14,47.82 492.29,47.50C492.43,47.18 492.72,46.39 492.93,45.75C493.14,45.11 493.55,43.95 493.84,43.17C494.13,42.39 494.58,41.15 494.84,40.42C495.11,39.68 495.59,38.33 495.92,37.42C496.25,36.50 496.64,35.41 496.78,35.00C496.92,34.59 497.20,33.84 497.42,33.33C497.63,32.83 497.85,32.15 497.92,31.83C497.99,31.51 498.16,31.03 498.30,30.75C498.44,30.48 498.72,29.73 498.93,29.08C499.14,28.44 499.58,27.20 499.91,26.33C500.25,25.46 500.70,24.22 500.92,23.58C501.14,22.94 501.59,21.67 501.92,20.75C502.25,19.83 502.64,18.75 502.78,18.33C502.91,17.92 503.14,17.32 503.28,17.00C503.43,16.68 503.72,15.89 503.93,15.25C504.14,14.61 504.55,13.45 504.84,12.67C505.13,11.89 505.55,10.72 505.77,10.08C506.38,8.34 507.02,6.78 507.21,6.54C507.43,6.26 508.08,6.28 508.32,6.56C508.55,6.84 508.22,7.88 506.16,13.50C505.87,14.28 505.42,15.52 505.16,16.25C504.89,16.98 504.46,18.18 504.19,18.92C503.05,22.00 502.46,23.65 502.09,24.75C501.87,25.39 501.42,26.63 501.08,27.50C500.75,28.37 500.33,29.50 500.16,30.00C499.99,30.50 499.54,31.74 499.17,32.75C498.79,33.76 498.31,35.11 498.10,35.75C497.89,36.39 497.60,37.18 497.45,37.50C497.31,37.82 497.08,38.42 496.94,38.83C496.69,39.58 495.85,41.93 495.09,44.00C494.17,46.51 493.46,48.48 493.15,49.42C492.97,49.97 492.68,50.72 492.51,51.08C492.34,51.45 492.14,52.01 492.08,52.33C492.01,52.65 491.85,53.14 491.71,53.41C491.57,53.69 491.25,54.51 491.00,55.25C490.75,55.98 490.30,57.22 490.01,58.00C489.72,58.78 489.33,59.90 489.14,60.49C488.95,61.08 488.70,61.72 488.58,61.91C488.45,62.10 488.26,62.62 488.15,63.08C488.04,63.54 487.82,64.18 487.66,64.50C487.50,64.82 487.28,65.42 487.17,65.83C487.06,66.25 486.80,67.00 486.59,67.50C486.37,68.00 486.07,68.79 485.91,69.25C484.91,72.22 484.66,72.89 484.48,73.10C484.38,73.23 484.16,73.80 484.00,74.38C483.84,74.95 483.55,75.81 483.35,76.29C482.49,78.43 482.29,78.98 482.01,79.92C481.84,80.47 481.55,81.29 481.36,81.75C481.18,82.21 480.93,82.83 480.82,83.12C480.55,83.88 479.89,84.02 477.58,83.85C472.96,83.49 470.17,81.77 467.75,77.75C467.03,76.56 466.18,74.74 464.46,70.75C464.19,70.11 463.75,69.13 463.48,68.57C463.22,68.01 463.00,67.44 462.99,67.32C462.99,67.19 462.76,66.67 462.49,66.17C462.22,65.66 462.00,65.16 462.00,65.04C462.00,64.86 461.57,63.87 460.57,61.75C460.35,61.29 460.06,60.58 459.91,60.17C459.77,59.76 459.56,59.27 459.44,59.09C459.32,58.90 459.12,58.45 459.01,58.08C458.89,57.72 458.69,57.24 458.55,57.03C458.41,56.81 458.17,56.25 458.00,55.78C457.45,54.22 456.84,53.00 456.61,53.00C456.48,53.00 456.30,53.09 456.21,53.21C456.06,53.40 455.22,55.67 454.22,58.58C454.00,59.23 453.69,60.05 453.52,60.42C453.35,60.78 453.15,61.35 453.08,61.67C453.02,61.99 452.83,62.51 452.66,62.83C452.50,63.16 452.28,63.76 452.17,64.17C452.06,64.58 451.80,65.33 451.59,65.83C451.37,66.34 451.08,67.09 450.95,67.50C450.81,67.91 450.42,69.00 450.09,69.92C449.75,70.83 449.31,72.07 449.10,72.67C448.89,73.27 448.63,73.91 448.52,74.09C448.41,74.27 448.15,74.94 447.93,75.58C447.71,76.23 447.26,77.50 446.93,78.42C446.59,79.33 446.18,80.50 446.01,81.00C445.84,81.50 445.51,82.34 445.28,82.85C444.87,83.76 444.52,84.04 443.83,83.97C443.70,83.96 442.83,83.89 441.92,83.83ZM368.63,55.97C368.94,55.66 368.87,55.24 368.42,54.57C368.19,54.23 368.00,53.85 368.00,53.73C368.00,53.61 367.78,53.04 367.52,52.46C367.25,51.89 366.79,50.85 366.50,50.17C366.20,49.48 365.75,48.43 365.49,47.83C365.24,47.24 364.79,46.25 364.51,45.64C364.23,45.02 364.00,44.42 364.00,44.30C364.00,44.18 363.82,43.77 363.60,43.39C363.38,43.01 363.11,42.41 362.99,42.06C362.88,41.71 362.60,41.09 362.39,40.68C362.18,40.28 362.00,39.83 361.99,39.68C361.99,39.54 361.76,39.00 361.49,38.50C361.22,38.00 361.00,37.48 361.00,37.35C361.00,37.22 360.82,36.81 360.61,36.43C360.39,36.06 360.08,35.36 359.93,34.88C359.77,34.40 359.58,33.96 359.50,33.92C359.42,33.87 359.20,33.34 359.00,32.75C358.80,32.16 358.58,31.63 358.50,31.58C358.42,31.54 358.20,31.01 358.00,30.42C357.80,29.82 357.58,29.30 357.50,29.25C357.42,29.20 357.20,28.68 357.00,28.08C356.80,27.49 356.58,26.96 356.50,26.92C356.42,26.87 356.20,26.34 356.00,25.75C355.80,25.16 355.58,24.63 355.50,24.58C355.42,24.54 355.23,24.11 355.07,23.63C354.92,23.16 354.66,22.54 354.49,22.26C354.33,21.98 354.11,21.46 354.00,21.10C353.88,20.74 353.65,20.21 353.48,19.91C353.30,19.62 353.05,19.02 352.92,18.57C352.78,18.12 352.49,17.53 352.26,17.25C351.71,16.57 351.39,16.79 350.91,18.17C350.14,20.36 349.80,21.25 349.65,21.43C349.57,21.54 349.35,22.02 349.18,22.52C348.82,23.52 348.18,25.12 347.60,26.50C347.02,27.86 346.51,29.12 346.08,30.25C345.56,31.60 344.86,33.31 344.58,33.92C344.27,34.57 343.53,36.40 343.23,37.25C343.10,37.62 342.82,38.33 342.60,38.83C341.97,40.29 341.49,41.50 341.08,42.63C340.87,43.21 340.62,43.77 340.54,43.88C340.45,43.99 340.25,44.50 340.08,45.00C339.92,45.50 339.73,45.99 339.66,46.09C339.58,46.18 339.32,46.78 339.08,47.42C337.98,50.31 337.82,50.71 337.50,51.33C337.32,51.69 337.17,52.07 337.17,52.18C337.17,52.29 336.86,53.05 336.49,53.88C335.92,55.14 335.84,55.46 335.98,55.78L336.16,56.17L352.30,56.17C364.63,56.17 368.48,56.12 368.63,55.97ZM71.17,52.92C71.17,52.79 75.84,48.05 81.54,42.38C87.25,36.72 98.45,25.57 106.44,17.61C114.43,9.64 121.07,3.06 121.19,2.98C121.31,2.90 121.53,2.84 121.66,2.84C121.80,2.83 127.21,8.16 133.68,14.67C145.41,26.45 145.95,26.95 146.02,26.02C146.04,25.87 146.05,24.86 146.06,23.78C146.08,22.03 146.12,21.78 146.41,21.57C146.67,21.38 147.59,21.33 151.19,21.33C155.61,21.33 155.65,21.34 155.91,21.70C156.13,22.03 156.17,23.04 156.17,29.43L156.17,36.78L156.65,37.43C156.91,37.79 160.33,41.27 164.25,45.17C168.17,49.06 171.49,52.42 171.63,52.63C171.77,52.84 171.84,53.05 171.79,53.10C171.56,53.33 170.50,52.55 164.56,47.79C162.65,46.26 160.54,44.57 159.87,44.04C159.20,43.52 158.14,42.67 157.52,42.17C156.89,41.66 155.98,40.95 155.50,40.58C155.02,40.22 154.12,39.50 153.50,39.00C152.88,38.50 151.79,37.63 151.09,37.08C150.38,36.53 149.30,35.67 148.68,35.17C148.06,34.66 147.15,33.95 146.67,33.58C146.19,33.22 145.28,32.50 144.66,32.00C143.56,31.11 141.45,29.42 140.17,28.42C137.28,26.14 134.27,23.76 133.33,23.00C132.71,22.50 131.81,21.78 131.33,21.42C130.86,21.05 130.38,20.67 130.27,20.58C130.17,20.48 129.11,19.64 127.92,18.70C125.02,16.41 123.28,15.03 122.47,14.38C122.10,14.08 121.67,13.83 121.51,13.83C121.22,13.83 120.81,14.13 118.50,16.00C117.88,16.50 116.98,17.22 116.50,17.58C116.02,17.95 114.93,18.81 114.08,19.50C113.23,20.19 112.14,21.05 111.66,21.42C111.19,21.78 110.29,22.50 109.67,23.00C109.05,23.50 107.59,24.67 106.42,25.58C104.05,27.45 102.80,28.43 100.89,29.96C100.17,30.53 98.72,31.69 97.67,32.53C96.61,33.37 95.51,34.25 95.22,34.49C94.93,34.72 94.34,35.18 93.91,35.50C93.48,35.82 92.62,36.50 92.00,37.00C90.75,38.00 89.43,39.05 86.47,41.38C79.73,46.68 77.78,48.23 76.35,49.42C74.19,51.22 72.06,52.82 71.57,53.00C71.26,53.12 71.17,53.10 71.17,52.92Z"/>
</svg>
